PathFileType	4	(X/Y/Z)	C:\Users\dbl\Desktop\LZH\BX\Trimmed_bx_n_10_901.trc
DataRate	CameraRate	NumFrames	NumMarkers	Units	OrigDataRate	OrigDataStartFrame	OrigNumFrames
50.00	50.00	      4	43	mm	50.00	570	      1518
Frame#	Time	Top.Head			R.Acromium			L.Acromium			Sternum			R.ASIS			L.ASIS			V.Sacral			R.Thigh.Upper			R.Thigh.Front			R.Thigh.Rear			R.Knee.Lat			R.Knee.Med			R.Shank.Upper			R.Shank.Front			R.Shank.Rear			R.Ankle.Lat			R.Midfoot.Lat			R.Toe.Lat			R.Toe.Tip			R.Toe.Med			R.Ankle.Med			R.Midfoot.Sup			R.Heel			L.Thigh.Upper			L.Thigh.Front			L.Thigh.Rear			L.Knee.Lat			L.Knee.Med			L.Shank.Upper			L.Shank.Front			L.Shank.Rear			L.Ankle.Lat			L.Midfoot.Lat			L.Toe.Lat			L.Toe.Tip			L.Toe.Med			L.Ankle.Med			L.Midfoot.Sup			L.Heel			origin1 front left			origin2 front right			origin 3 back right			origin 4 back leftt			
		X1	Y1	Z1	X2	Y2	Z2	X3	Y3	Z3	X4	Y4	Z4	X5	Y5	Z5	X6	Y6	Z6	X7	Y7	Z7	X8	Y8	Z8	X9	Y9	Z9	X10	Y10	Z10	X11	Y11	Z11	X12	Y12	Z12	X13	Y13	Z13	X14	Y14	Z14	X15	Y15	Z15	X16	Y16	Z16	X17	Y17	Z17	X18	Y18	Z18	X19	Y19	Z19	X20	Y20	Z20	X21	Y21	Z21	X22	Y22	Z22	X23	Y23	Z23	X24	Y24	Z24	X25	Y25	Z25	X26	Y26	Z26	X27	Y27	Z27	X28	Y28	Z28	X29	Y29	Z29	X30	Y30	Z30	X31	Y31	Z31	X32	Y32	Z32	X33	Y33	Z33	X34	Y34	Z34	X35	Y35	Z35	X36	Y36	Z36	X37	Y37	Z37	X38	Y38	Z38	X39	Y39	Z39	X40	Y40	Z40	X41	Y41	Z41	X42	Y42	Z42	X43	Y43	Z43	

570	11.380	-639.57263	258.67633	1833.05554	-623.70642	82.30377	1536.20190	-603.21454	441.60236	1531.34998	-514.80688	259.00784	1353.61255	-524.83618	134.61299	1035.11731	-502.45029	361.73151	1039.78955	-716.93555	258.16220	1048.94800	-593.48840	84.29430	832.22913	-509.62460	150.18753	807.85211	-621.48523	102.45210	722.43719	-639.66003	122.51366	606.90613	-621.06104	231.18793	563.34058	-671.15515	122.56668	540.95422	-594.67468	174.15694	524.33649	-681.34595	114.62873	490.23264	-684.72107	148.29671	213.05629	-606.35052	92.29747	166.20326	-558.32935	73.73927	163.13188	-478.91907	117.04748	155.14499	-529.41431	168.35594	163.33173	-638.00220	227.79323	219.22310	-594.82697	203.00513	170.81256	-722.48029	212.68892	168.13646	-586.30524	443.63321	852.66064	-508.37704	387.51996	814.39832	-611.10315	430.47198	739.90961	-632.01624	410.05206	605.81311	-612.52484	307.55136	569.97333	-649.50494	413.22369	560.04480	-594.50098	355.83801	535.80914	-704.37793	417.76349	498.67279	-668.25488	412.19293	214.69496	-572.06830	456.49957	164.76187	-533.34601	466.65732	157.00874	-469.16754	415.74753	162.71964	-516.79034	373.44470	176.46358	-639.71265	317.17459	209.98787	-589.26056	336.58521	170.20821	-728.90021	345.07324	161.09973	-443.51385	448.70093	146.58759	-450.31311	75.07606	143.87465	-806.47504	82.62896	142.07358	-799.20386	457.09055	144.45923	
571	11.400	-634.29376	258.16632	1833.56116	-621.59241	82.04128	1536.09094	-601.02460	441.40210	1531.65247	-514.12646	259.00003	1352.98938	-526.09216	135.04001	1035.11938	-503.65341	362.07623	1039.81934	-718.15698	258.58887	1049.29993	-594.63379	84.58482	832.36310	-510.72849	150.59320	808.00519	-622.41620	102.73235	722.50183	-640.41364	122.66158	606.90942	-621.58978	231.31601	563.41223	-671.73920	122.68592	540.97754	-595.20990	174.34995	524.43951	-681.87360	114.78033	490.21371	-684.75287	148.29904	213.01146	-606.31061	92.30491	166.23979	-558.32770	73.74617	163.12105	-478.91455	117.05130	155.14450	-529.36218	168.38718	163.31491	-638.08240	227.77899	219.18112	-594.82880	203.01544	170.80498	-722.29321	212.56328	168.06149	-587.43140	443.99197	852.74823	-509.41733	387.88840	814.53644	-612.06073	430.82687	739.95953	-632.82410	410.29150	605.79456	-613.26624	307.86517	570.01575	-650.19385	413.50882	559.94757	-595.13464	356.09549	535.86896	-704.95795	417.96573	498.57761	-668.30225	412.27835	214.66383	-572.07520	456.52524	164.71202	-533.33453	466.65823	157.01147	-469.18005	415.63995	162.64900	-516.80963	373.48517	176.46338	-639.91138	317.69556	209.63315	-589.30743	336.77716	170.06839	-728.88318	345.09286	161.08778	-443.52771	448.68005	146.61855	-450.31158	75.07404	143.88332	-806.46869	82.61354	142.03793	-799.18866	457.06766	144.45464	
572	11.420	-628.35040	257.66446	1834.05469	-619.27643	81.79389	1535.97302	-598.71155	441.17853	1531.98816	-513.39056	258.99176	1352.28894	-527.53839	135.44653	1035.12183	-505.00101	362.35687	1039.83582	-719.55817	259.02899	1049.65759	-595.98755	84.85780	832.50494	-511.99869	150.96585	808.17609	-623.51202	102.99448	722.56030	-641.27759	122.80829	606.94440	-622.11078	231.42912	563.55023	-672.41547	122.83702	540.99664	-595.80896	174.56685	524.60388	-682.46960	114.96596	490.18326	-684.78931	148.30443	212.96074	-606.27234	92.31452	166.27632	-558.32953	73.74250	163.10995	-478.90891	117.05335	155.14732	-529.32312	168.42865	163.26056	-638.17651	227.75095	219.17171	-594.83575	203.01405	170.81546	-722.17328	212.45790	167.94705	-588.67468	444.35681	852.85974	-510.60205	388.24783	814.66589	-613.11243	431.19003	739.98401	-633.70068	410.55981	605.79077	-614.04230	308.20804	570.12524	-650.95789	413.78268	559.88745	-595.84747	356.33713	535.92426	-705.61823	418.15753	498.46649	-668.37024	412.36002	214.59380	-572.08380	456.55182	164.66891	-533.32568	466.66425	157.01385	-469.20142	415.55872	162.58496	-516.83069	373.53842	176.46672	-640.17200	318.38690	209.06360	-589.39282	336.88571	169.97513	-728.86212	345.10709	161.06294	-443.54541	448.66660	146.65392	-450.30414	75.07272	143.88757	-806.45923	82.59976	141.98984	-799.16370	457.03400	144.44270	
573	11.440	-621.70953	257.18195	1834.50989	-616.75989	81.55931	1535.84058	-596.26611	440.92358	1532.34631	-512.61310	258.98676	1351.50232	-529.20532	135.81818	1035.13538	-506.48880	362.57565	1039.83704	-721.14075	259.49646	1050.00684	-597.57526	85.12763	832.65442	-513.45996	151.27658	808.37799	-624.80518	103.22854	722.61932	-642.25677	122.96503	607.02197	-622.64575	231.53111	563.74744	-673.19336	123.02985	541.00989	-596.47742	174.75638	524.82202	-683.14191	115.17316	490.16196	-684.83789	148.31180	212.91057	-606.24103	92.32773	166.31366	-558.33020	73.73251	163.10576	-478.90332	117.05345	155.15576	-529.31421	168.46964	163.19661	-638.27069	227.70755	219.21394	-594.84967	203.00449	170.84348	-722.14081	212.40236	167.81033	-590.04535	444.70874	852.98712	-511.93015	388.59592	814.79150	-614.27716	431.55603	739.97382	-634.64886	410.85773	605.79187	-614.89771	308.54968	570.28503	-651.80396	414.03946	559.85748	-596.64398	356.57089	535.97882	-706.35809	418.34381	498.33127	-668.46002	412.43469	214.49010	-572.09326	456.57745	164.63580	-533.31110	466.68188	157.01810	-469.22906	415.52246	162.54424	-516.85443	373.60458	176.47998	-640.47418	319.16495	208.35526	-589.48621	336.92932	169.93703	-728.84137	345.11639	161.02896	-443.56512	448.66858	146.70357	-450.28537	75.07388	143.88503	-806.45190	82.59068	141.94604	-799.13281	457.00433	144.43114	
